<svg width="18" height="15" viewBox="0 0 18 15" fill="none" xmlns="http://www.w3.org/2000/svg">
<path fill-rule="evenodd" clip-rule="evenodd" d="M12.6128 2.13992C13.2266 2.14094 13.8271 2.31922 14.3421 2.65335C14.8571 2.98747 15.2648 3.46325 15.5162 4.02353C15.7675 4.58381 15.8519 5.20477 15.7591 5.81187C15.6664 6.41896 15.4005 6.98636 14.9934 7.44594C14.4089 8.1052 9.42464 12.7732 9.42464 12.7732C9.42464 12.7732 4.42979 8.10519 3.84528 7.43529C3.32968 6.85556 3.04589 6.10595 3.04823 5.32992C3.04823 4.48388 3.38411 3.67247 3.98202 3.07423C4.57992 2.47599 5.39087 2.13992 6.23643 2.13992C7.082 2.13992 7.89295 2.47599 8.49085 3.07423C9.08876 3.67247 9.42464 4.48388 9.42464 5.32992C9.42464 4.48388 9.76052 3.67247 10.3584 3.07423C10.9563 2.47599 11.7673 2.13992 12.6128 2.13992ZM12.6128 0.0132533C11.4628 0.0111702 10.3434 0.384497 9.42464 1.07659C8.37215 0.298816 7.06988 -0.0630789 5.76727 0.0602414C4.46467 0.183562 3.25329 0.783452 2.36528 1.74493C1.47726 2.70641 0.975013 3.96192 0.95474 5.27092C0.934467 6.57992 1.39765 7.85035 2.25546 8.8389C2.85272 9.52369 6.78375 13.2071 7.97402 14.3193C8.36775 14.6877 8.88663 14.8926 9.42568 14.8926C9.96473 14.8926 10.4837 14.6877 10.8774 14.3193C12.0634 13.2081 15.9785 9.5343 16.5832 8.85058C17.2601 8.08426 17.7016 7.1389 17.855 6.1278C18.0084 5.11671 17.8671 4.0828 17.4481 3.15003C17.029 2.21726 16.35 1.42521 15.4924 0.868839C14.6347 0.312472 13.6349 0.0154266 12.6128 0.0132533V0.0132533Z" fill="#33A0FF"/>
</svg>
